<svg width="25" height="20" viewBox="0 0 25 20" fill="none" xmlns="http://www.w3.org/2000/svg">
<path d="M24.0625 7.5H18.75V0.9375C18.75 0.419531 18.3305 0 17.8125 0H12.1875C11.6695 0 11.25 0.419531 11.25 0.9375V3.75H8.75V0.625C8.75 0.279687 8.47031 0 8.125 0H7.5C7.15469 0 6.875 0.279687 6.875 0.625V3.75H4.375V0.625C4.375 0.279687 4.09531 0 3.75 0H3.125C2.77969 0 2.5 0.279687 2.5 0.625V3.75H0.9375C0.419531 3.75 0 4.16953 0 4.6875V18.75C0 19.4402 0.559766 20 1.25 20H23.75C24.4402 20 25 19.4402 25 18.75V8.4375C25 7.91953 24.5801 7.5 24.0625 7.5ZM5 15.7812C5 16.0402 4.79023 16.25 4.53125 16.25H2.96875C2.70977 16.25 2.5 16.0402 2.5 15.7812V14.2188C2.5 13.9598 2.70977 13.75 2.96875 13.75H4.53125C4.79023 13.75 5 13.9598 5 14.2188V15.7812ZM5 12.0312C5 12.2902 4.79023 12.5 4.53125 12.5H2.96875C2.70977 12.5 2.5 12.2902 2.5 12.0312V10.4688C2.5 10.2098 2.70977 10 2.96875 10H4.53125C4.79023 10 5 10.2098 5 10.4688V12.0312ZM5 8.28125C5 8.54023 4.79023 8.75 4.53125 8.75H2.96875C2.70977 8.75 2.5 8.54023 2.5 8.28125V6.71875C2.5 6.45977 2.70977 6.25 2.96875 6.25H4.53125C4.79023 6.25 5 6.45977 5 6.71875V8.28125ZM10 15.7812C10 16.0402 9.79023 16.25 9.53125 16.25H7.96875C7.70977 16.25 7.5 16.0402 7.5 15.7812V14.2188C7.5 13.9598 7.70977 13.75 7.96875 13.75H9.53125C9.79023 13.75 10 13.9598 10 14.2188V15.7812ZM10 12.0312C10 12.2902 9.79023 12.5 9.53125 12.5H7.96875C7.70977 12.5 7.5 12.2902 7.5 12.0312V10.4688C7.5 10.2098 7.70977 10 7.96875 10H9.53125C9.79023 10 10 10.2098 10 10.4688V12.0312ZM10 8.28125C10 8.54023 9.79023 8.75 9.53125 8.75H7.96875C7.70977 8.75 7.5 8.54023 7.5 8.28125V6.71875C7.5 6.45977 7.70977 6.25 7.96875 6.25H9.53125C9.79023 6.25 10 6.45977 10 6.71875V8.28125ZM16.25 12.0312C16.25 12.2902 16.0402 12.5 15.7812 12.5H14.2188C13.9598 12.5 13.75 12.2902 13.75 12.0312V10.4688C13.75 10.2098 13.9598 10 14.2188 10H15.7812C16.0402 10 16.25 10.2098 16.25 10.4688V12.0312ZM16.25 8.28125C16.25 8.54023 16.0402 8.75 15.7812 8.75H14.2188C13.9598 8.75 13.75 8.54023 13.75 8.28125V6.71875C13.75 6.45977 13.9598 6.25 14.2188 6.25H15.7812C16.0402 6.25 16.25 6.45977 16.25 6.71875V8.28125ZM16.25 4.53125C16.25 4.79023 16.0402 5 15.7812 5H14.2188C13.9598 5 13.75 4.79023 13.75 4.53125V2.96875C13.75 2.70977 13.9598 2.5 14.2188 2.5H15.7812C16.0402 2.5 16.25 2.70977 16.25 2.96875V4.53125ZM22.5 15.7812C22.5 16.0402 22.2902 16.25 22.0312 16.25H20.4688C20.2098 16.25 20 16.0402 20 15.7812V14.2188C20 13.9598 20.2098 13.75 20.4688 13.75H22.0312C22.2902 13.75 22.5 13.9598 22.5 14.2188V15.7812ZM22.5 12.0312C22.5 12.2902 22.2902 12.5 22.0312 12.5H20.4688C20.2098 12.5 20 12.2902 20 12.0312V10.4688C20 10.2098 20.2098 10 20.4688 10H22.0312C22.2902 10 22.5 10.2098 22.5 10.4688V12.0312Z" fill="#215732"/>
</svg>
