<svg width="27" height="31" viewBox="0 0 27 31" fill="none" xmlns="http://www.w3.org/2000/svg">
<path d="M7.81192 10.6562H10.1678C10.2576 9.01967 10.5619 7.54717 11.0242 6.39314C9.35417 7.19479 8.13013 8.76598 7.81192 10.6562ZM7.81192 12.5938C8.13074 14.484 9.35417 16.0552 11.0242 16.8569C10.5613 15.7028 10.2576 14.2303 10.1678 12.5938H7.81192ZM13.5 17.3582C13.9635 16.9071 14.7518 15.2742 14.9121 12.5938H12.0873C12.2482 15.2736 13.0365 16.9071 13.5 17.3582ZM12.0879 10.6562H14.9127C14.7524 7.97645 13.9641 6.34289 13.5006 5.89182C13.0365 6.34289 12.2482 7.97645 12.0879 10.6562ZM15.9758 16.8569C17.6458 16.0552 18.8699 14.484 19.1881 12.5938H16.8322C16.7424 14.2303 16.4387 15.7028 15.9758 16.8569ZM25.0714 0H3.85714C1.72667 0 0 1.73467 0 3.875V27.125C0 29.2653 1.72667 31 3.85714 31H25.0714C26.1364 31 27 30.1324 27 29.0625V1.9375C27 0.867637 26.1364 0 25.0714 0ZM20.25 25.1875H6.75C6.21964 25.1875 5.78571 24.7516 5.78571 24.2188C5.78571 23.6859 6.21964 23.25 6.75 23.25H20.25C20.7804 23.25 21.2143 23.6859 21.2143 24.2188C21.2143 24.7516 20.7804 25.1875 20.25 25.1875ZM13.5 19.375C9.23967 19.375 5.78571 15.9051 5.78571 11.625C5.78571 7.34494 9.23967 3.875 13.5 3.875C17.7603 3.875 21.2143 7.34494 21.2143 11.625C21.2143 15.9051 17.7603 19.375 13.5 19.375ZM15.9758 6.39314C16.4387 7.54717 16.7424 9.01967 16.8322 10.6562H19.1881C18.8699 8.76598 17.6458 7.19479 15.9758 6.39314Z" fill="#215732"/>
</svg>
