<svg width="43" height="43" viewBox="0 0 43 43" fill="none" xmlns="http://www.w3.org/2000/svg">
<path d="M43 30.5085C43 38.3345 38.3345 43 30.5085 43H27.95C26.7675 43 25.8 42.0325 25.8 40.85V28.4445C25.8 27.864 26.273 27.3695 26.8535 27.3695L30.6375 27.305C30.9385 27.2835 31.1965 27.0685 31.261 26.7675L32.0135 22.661C32.078 22.274 31.777 21.9085 31.3685 21.9085L26.789 21.973C26.187 21.973 25.714 21.5 25.6925 20.9195L25.6065 15.652C25.6065 15.308 25.886 15.007 26.2515 15.007L31.4115 14.921C31.777 14.921 32.0565 14.6415 32.0565 14.276L31.9705 9.11598C31.9705 8.75048 31.691 8.471 31.3255 8.471L25.5205 8.55702C21.9515 8.62152 19.1135 11.5455 19.178 15.1145L19.2855 21.027C19.307 21.629 18.834 22.102 18.232 22.1235L15.652 22.1665C15.2865 22.1665 15.007 22.446 15.007 22.8115L15.0715 26.8965C15.0715 27.262 15.351 27.5415 15.7165 27.5415L18.2965 27.4985C18.8985 27.4985 19.3715 27.9715 19.393 28.552L19.5865 40.807C19.608 42.011 18.6405 43 17.4365 43H12.4915C4.6655 43 0 38.3345 0 30.487V12.4915C0 4.6655 4.6655 0 12.4915 0H30.5085C38.3345 0 43 4.6655 43 12.4915V30.5085Z" fill="#215732"/>
</svg>
