<svg width="44" height="44" viewBox="0 0 44 44" fill="none" xmlns="http://www.w3.org/2000/svg">
<path d="M22.3844 29.3806C26.3629 29.3806 29.5882 26.1553 29.5882 22.1768C29.5882 18.1983 26.3629 14.973 22.3844 14.973C18.4059 14.973 15.1807 18.1983 15.1807 22.1768C15.1807 26.1553 18.4059 29.3806 22.3844 29.3806Z" fill="#215732"/>
<path d="M43.8612 13.3634C43.8348 11.5475 43.4989 9.74594 42.856 8.04755C41.731 5.14734 39.4401 2.85404 36.5399 1.73137C34.8631 1.10048 33.0903 0.762238 31.296 0.723856C28.9883 0.620705 28.2566 0.591919 22.3986 0.591919C16.5406 0.591919 15.7898 0.591919 13.4989 0.723856C11.7069 0.762238 9.93419 1.10048 8.25739 1.73137C5.35718 2.85404 3.06388 5.14734 1.94121 8.04755C1.31031 9.72435 0.969677 11.4971 0.936094 13.289C0.832943 15.5991 0.801758 16.3308 0.801758 22.1888C0.801758 28.0468 0.801758 28.7952 0.936094 31.0885C0.972076 32.8829 1.31031 34.6532 1.94121 36.3348C3.06627 39.2326 5.35718 41.5259 8.25979 42.6486C9.92939 43.3011 11.7021 43.6705 13.5013 43.7281C15.8114 43.8312 16.543 43.8624 22.401 43.8624C28.259 43.8624 29.0099 43.8624 31.3008 43.7281C33.0927 43.6921 34.8655 43.3539 36.5447 42.723C39.4449 41.5979 41.7358 39.3046 42.8608 36.4068C43.4917 34.7276 43.83 32.9572 43.866 31.1605C43.9691 28.8528 44.0003 28.1211 44.0003 22.2607C43.9955 16.4028 43.9955 15.6591 43.8612 13.3634ZM22.3842 33.2667C16.2576 33.2667 11.2943 28.3035 11.2943 22.1768C11.2943 16.0501 16.2576 11.0869 22.3842 11.0869C28.5061 11.0869 33.4741 16.0501 33.4741 22.1768C33.4741 28.3035 28.5061 33.2667 22.3842 33.2667ZM33.9155 13.2627C32.4834 13.2627 31.3295 12.1064 31.3295 10.6767C31.3295 9.24698 32.4834 8.09073 33.9155 8.09073C35.3428 8.09073 36.4991 9.24698 36.4991 10.6767C36.4991 12.1064 35.3428 13.2627 33.9155 13.2627Z" fill="#215732"/>
</svg>
