<svg width="23" height="27" viewBox="0 0 23 27" fill="none" xmlns="http://www.w3.org/2000/svg">
<path d="M18.75 8.75H21.25C21.5815 8.75 21.8995 8.8817 22.1339 9.11612C22.3683 9.35054 22.5 9.66848 22.5 10V25C22.5 25.3315 22.3683 25.6495 22.1339 25.8839C21.8995 26.1183 21.5815 26.25 21.25 26.25H1.25C0.918479 26.25 0.600537 26.1183 0.366116 25.8839C0.131696 25.6495 0 25.3315 0 25V10C0 9.66848 0.131696 9.35054 0.366116 9.11612C0.600537 8.8817 0.918479 8.75 1.25 8.75H3.75V7.5C3.75 5.51088 4.54018 3.60322 5.9467 2.1967C7.35322 0.790176 9.26088 0 11.25 0C13.2391 0 15.1468 0.790176 16.5533 2.1967C17.9598 3.60322 18.75 5.51088 18.75 7.5V8.75ZM16.25 8.75V7.5C16.25 6.17392 15.7232 4.90215 14.7855 3.96447C13.8479 3.02678 12.5761 2.5 11.25 2.5C9.92392 2.5 8.65215 3.02678 7.71447 3.96447C6.77678 4.90215 6.25 6.17392 6.25 7.5V8.75H16.25ZM10 16.25V18.75H12.5V16.25H10ZM5 16.25V18.75H7.5V16.25H5ZM15 16.25V18.75H17.5V16.25H15Z" fill="#215732"/>
</svg>
